<svg version="1.2" xmlns="http://www.w3.org/2000/svg" viewBox="0 0 2000 2000" width="2000" height="2000">
	<style>
		.s0 { fill: #2b2a29 } 
		.s1 { fill: #f9b101 } 
	</style>
	<path fill-rule="evenodd" class="s0" d="m1592.44 1409.97q0 11.03 0 22.06c0 225.02-182.61 408.87-409.38 408.87-225.31 0-409.39-182.38-409.39-408.87q0-11.03 0-22.06h4.42c-20.61-32.36-45.65-133.84-45.65-133.84 14.73 1.47 91.3 16.18 91.3 16.18 0 0 42.71 89.71 110.45 116.19h658.25z"/>
	<path fill-rule="evenodd" class="s1" d="m829.64 911.38v417.7c26.5 528 365.2 511.82 365.2 511.82-359.31 33.82-494.79-54.42-494.79-54.42-294.52-116.19-293.05-457.4-293.05-457.4v-148.55-1029.53c232.67 0 422.64 189.73 422.64 422.11z"/>
</svg>