<svg version="1.2" xmlns="http://www.w3.org/2000/svg" viewBox="0 0 300 60" width="300" height="60">
	<style>
		.s0 { fill: #000000 } 
		.s1 { fill: none;stroke: #000000;stroke-miterlimit:100 } 
	</style>
	<path class="s0" d="m1 42.55v-38.16q0-0.51 0.25-0.76 0.38-0.37 0.88-0.37h5.02q0.5 0 0.75 0.37 0.38 0.25 0.38 0.76l-0.12 32.38h14.81q0.5 0 0.75 0.38 0.38 0.25 0.38 0.75v4.65q0 0.5-0.38 0.87-0.25 0.25-0.75 0.25h-20.84q-0.5 0-0.88-0.25-0.25-0.37-0.25-0.87zm27.62 0v-26.62q0-0.5 0.37-0.75 0.25-0.38 0.63-0.38h4.64q0.38 0 0.76 0.38 0.37 0.25 0.37 0.75v26.62q0 0.5-0.37 0.87-0.38 0.25-0.76 0.25h-4.64q-0.38 0-0.63-0.25-0.37-0.37-0.37-0.87zm-0.38-35.65q0-1.51 1.13-2.64 1-1.13 2.64-1.13 1.5 0 2.63 1.13 1.13 1.13 1.13 2.64 0 1.63-1.13 2.63-1.13 1.13-2.63 1.13-1.64 0-2.64-1.13-1.13-1-1.13-2.63zm38.91 9.41l-11.17 26.74q-0.12 0.25-0.38 0.5-0.37 0.12-0.62 0.12h-3.27q-0.25 0-0.5-0.12-0.25-0.25-0.38-0.5l-11.29-26.74q-0.25-0.63 0.12-1 0.25-0.51 0.88-0.51h5.02q0.38 0 0.63 0.25 0.38 0.38 0.63 1.01l6.65 15.69 6.53-15.82q0.12-0.62 0.5-0.88 0.25-0.25 0.63-0.25h5.02q0.63 0 1 0.51 0.25 0.37 0 1zm2.89 26.24v-26.62q0-0.5 0.38-0.75 0.25-0.38 0.62-0.38h4.65q0.37 0 0.75 0.38 0.38 0.25 0.38 0.75v26.62q0 0.5-0.38 0.87-0.38 0.25-0.75 0.25h-4.65q-0.37 0-0.62-0.25-0.38-0.37-0.38-0.87zm-0.38-35.65q0-1.51 1.13-2.64 1.01-1.13 2.64-1.13 1.51 0 2.63 1.13 1.13 1.13 1.13 2.64 0 1.63-1.13 2.63-1.12 1.13-2.63 1.13-1.63 0-2.64-1.13-1.13-1-1.13-2.63zm20.59 20.83l-0.13 14.82q0 1.12-1 1.12h-4.52q-0.5 0-0.88-0.25-0.25-0.37-0.25-0.87v-26.62q0-0.5 0.25-0.75 0.38-0.38 0.88-0.38h4.52q1 0 1 1.13v2.14q1.76-1.38 3.9-2.39 2.25-1 4.39-1 2.01 0 3.64 0.75 1.76 0.75 3.01 2.01 1.26 1.26 2.01 3.01 0.63 1.76 0.63 3.89v18.21q0 1.12-1.13 1.12h-4.52q-0.38 0-0.75-0.25-0.26-0.37-0.26-0.87v-16.07q0-2.39-1.13-3.64-1.12-1.38-3.13-1.38-1.26 0-2.51 0.62-1.13 0.38-2.01 1.26-0.88 0.88-1.51 2.01-0.5 1.13-0.5 2.38zm23.1 24.1l3.39-3.39q0.25-0.37 0.75-0.37 0.5 0 0.75 0.5 1.01 1.26 2.51 2.01 1.63 0.75 3.27 0.75 1.5 0 2.76-0.63 1.38-0.62 2.26-1.63 0.88-0.88 1.38-2.51 0.63-1.5 0.63-3.89v-1.88q-1.64 1.25-3.64 2.13-2.01 0.88-3.9 0.88-3.01 0-5.52-1.13-2.64-1.13-4.39-3.01-1.89-2.01-2.89-4.65-1.13-2.63-1.13-5.77 0-3.14 1.13-5.77 1-2.64 2.89-4.52 1.75-2.01 4.27-3.14 2.51-1.13 5.52-1.13 1.88 0 3.89 0.88 2.13 0.88 3.77 2.13v-1.76q0-0.5 0.25-0.75 0.37-0.38 0.75-0.38h4.52q1.13 0 1.13 1.13v23.48q0 3.01-0.25 5.27-0.25 2.26-0.76 4.02-0.5 1.75-1.25 3.01-0.75 1.25-1.88 2.38-1.89 1.89-4.4 3.02-2.26 1-5.14 1-3.14 0-6.03-1.25-2.76-1.39-4.77-3.65-0.25-0.25-0.25-0.62 0.13-0.5 0.38-0.76zm3.26-22.59q0 1.51 0.5 3.01 0.5 1.38 1.38 2.51 1.01 1.01 2.26 1.63 1.26 0.63 2.89 0.63 1.76 0 3.01-0.63 1.38-0.62 2.26-1.63 0.88-1.13 1.38-2.51 0.38-1.38 0.38-3.01 0-1.51-0.5-2.89-0.51-1.38-1.51-2.38-0.88-1.13-2.26-1.63-1.25-0.63-2.76-0.63-3.14 0-5.15 2.13-1.88 2.14-1.88 5.4zm39.04-19.46q-1.13 0-2.14 0.63-0.87 0.63-0.87 1.76 0 1 0.37 2.01 0.5 0.75 1.26 1.63 0.75 0.75 1.63 1.63 1 0.75 2.01 1.63 1.5 1.38 3.01 2.76 1.63 1.26 3.01 2.89 1.26 1.63 2.14 3.52 0.88 1.88 1 4.26 0 2.64-0.88 4.9-0.88 2.13-2.51 3.64-1.5 1.51-3.76 2.38-2.14 0.76-4.77 0.76-3.77 0.12-6.78-1.26-3.01-1.38-5.4-3.76-0.38-0.38-0.38-0.76 0-0.37 0.25-0.62l3.02-4.15q0.25-0.5 0.75-0.5 0.5 0 0.88 0.25 1.51 1.51 3.51 2.51 2.01 1.01 4.15 1.01 1.75-0.13 2.88-1.13 1.26-1.26 1.26-2.89 0-1-0.5-2.01-0.63-0.88-1.51-1.76-0.88-1-1.88-1.75-0.88-0.76-1.76-1.51-1.51-1.26-3.14-2.64-1.5-1.5-2.76-3.13-1.25-1.64-2.01-3.52-0.88-1.76-0.88-3.89 0-2.26 0.88-4.14 0.88-1.76 2.26-3.02 1.38-1.38 3.27-2 1.75-0.76 3.76-0.76 3.39 0 5.78 0.76 2.25 0.75 4.01 2 0.38 0.26 0.38 0.63 0.12 0.38 0 0.76l-2.39 4.39q-0.25 0.5-0.62 0.63-0.38 0.12-0.88-0.13-1.13-0.63-2.51-1.25-1.38-0.76-3.14-0.76zm23.6 6.15v1.76q1.63-1.25 3.64-2.01 2.13-1 4.01-1 3.02 0 5.53 1.13 2.38 1.13 4.27 3.01 1.75 2.01 2.88 4.65 1.01 2.63 1.01 5.77 0 3.01-1.01 5.77-1.13 2.64-2.88 4.65-1.89 1.88-4.4 3.01-2.51 1.13-5.52 1.13-2.01 0-4.02-0.88-1.88-0.75-3.51-2.13v16.32q0 0.37-0.25 0.75-0.38 0.25-0.76 0.25h-4.64q-0.38 0-0.75-0.25-0.26-0.38-0.26-0.75v-41.18q0-0.5 0.26-0.75 0.37-0.38 0.75-0.38h4.64q0.38 0 0.76 0.38 0.25 0.25 0.25 0.75zm14.43 13.31q0-3.26-2.01-5.4-1.88-2.13-5.02-2.13-1.63 0-2.88 0.5-1.26 0.63-2.26 1.63-1.01 1.01-1.51 2.39-0.5 1.38-0.5 3.01 0 1.63 0.5 3.01 0.5 1.38 1.51 2.51 1 1.01 2.26 1.63 1.25 0.63 2.88 0.63 1.51 0 2.77-0.63 1.25-0.62 2.25-1.63 1.01-1.13 1.51-2.51 0.5-1.5 0.5-3.01zm30.26 13.31v-1.76q-1.51 1.25-3.52 2.13-2.13 0.88-4.14 0.88-3.01 0-5.53-1.13-2.51-1.13-4.39-3.01-1.76-2.01-2.76-4.65-1.13-2.63-1.13-5.77 0-3.01 1.13-5.65 1.13-2.64 3.01-4.52 1.89-2.01 4.4-3.26 2.51-1.13 5.39-1.13 2.01 0 4.02 1 2.01 0.76 3.52 2.01v-1.76q0-0.5 0.25-0.75 0.37-0.38 0.87-0.38h4.52q1.01 0 1.01 1.13v26.62q0 1.12-1.01 1.12h-4.52q-0.5 0-0.87-0.25-0.25-0.37-0.25-0.87zm-14.44-13.31q0 1.51 0.63 3.01 0.5 1.26 1.5 2.26 1.01 1.13 2.26 1.76 1.38 0.5 2.76 0.5 1.64 0 2.89-0.5 1.26-0.63 2.14-1.76 1-1 1.5-2.26 0.5-1.5 0.5-3.01 0-1.51-0.5-2.89-0.5-1.38-1.5-2.38-0.88-1.13-2.14-1.63-1.25-0.63-2.89-0.63-1.38 0-2.76 0.63-1.25 0.5-2.26 1.63-1 1-1.5 2.38-0.63 1.38-0.63 2.89zm47.83-10.42l-2.64 4.02q-0.25 0.5-0.75 0.5-0.38 0.13-0.88-0.25-0.76-0.63-1.89-1.01-1-0.37-2.26-0.37-1.5 0-2.76 0.63-1.25 0.5-2.13 1.63-0.88 1-1.38 2.51-0.5 1.38-0.5 2.88 0 1.64 0.5 3.02 0.63 1.38 1.5 2.38 1.01 1.01 2.39 1.63 1.26 0.63 2.76 0.63 1.38 0 2.64-0.63 1.25-0.62 2.13-1.63 0.38-0.37 0.75-0.25 0.38 0 0.76 0.25l3.39 3.27q0.37 0.25 0.25 0.75 0 0.38-0.25 0.75-1.89 2.01-4.4 3.14-2.38 1.13-5.27 1.13-3.01 0-5.65-1-2.51-1.13-4.39-3.14-1.88-1.88-3.01-4.52-1.13-2.64-1.13-5.78 0-2.88 1-5.39 1.13-2.64 2.89-4.65 1.88-2.13 4.39-3.26 2.51-1.26 5.52-1.38 4.27 0 8.04 2.63 0.38 0.26 0.5 0.63 0.13 0.5-0.12 0.88zm30.87 13.68h-17.82q0.88 2.01 2.38 3.27 1.76 1.25 3.9 1.25 1.5 0 3.01-0.5 1.38-0.5 2.38-1.51 0.38-0.25 0.76-0.12 0.5 0 0.75 0.25l3.26 3.14q0.38 0.25 0.38 0.75 0 0.38-0.38 0.63-1.88 2.01-4.52 3.14-2.51 1-5.64 1-2.89 0-5.4-1-2.39-1.13-4.27-3.02-2.01-2-3.14-4.77-1.13-2.76-1.13-5.9 0-3.01 1.13-5.52 1.13-2.76 3.02-4.64 1.88-2.01 4.39-3.14 2.51-1.13 5.4-1.13 2.63 0 4.89 1 2.39 1.01 4.14 2.76 0.76 0.63 1.38 1.51 0.76 1 1.26 2.26 0.5 1.13 0.75 2.76 0.38 1.51 0.38 3.64 0 1.38-0.13 2.89-0.12 1-1.13 1zm-11.67-11.04q-2.38 0-4.02 1.38-1.5 1.25-2.13 3.26h12.05q-0.63-1.88-2.13-3.26-1.38-1.38-3.77-1.38z"/>
	<path fill-rule="evenodd" class="s1" d="m293.04 14.05c-3.3 0-5.97-2.69-5.97-6.02 0-3.34 2.67-6.03 5.97-6.03 3.29 0 5.96 2.69 5.96 6.03 0 3.33-2.67 6.02-5.96 6.02z"/>
	<path class="s0" d="m291.72 11.04h-0.88v-5.4h2.26q0.38 0 0.75 0.13 0.25 0.25 0.51 0.5 0.25 0.25 0.37 0.5 0.13 0.38 0.13 0.63 0 0.37-0.13 0.75-0.12 0.25-0.37 0.5-0.26 0.25-0.63 0.38l1.25 2.01h-0.88l-1.13-1.88h-1.25zm0-4.65v2.01h1.38q0.25 0 0.5-0.13 0.13-0.12 0.25-0.37 0.13-0.25 0.13-0.51 0-0.25-0.13-0.5-0.12-0.25-0.37-0.37-0.13-0.13-0.38-0.13z"/>
</svg>